<svg width="21" height="21" viewBox="0 0 21 21" fill="none" xmlns="http://www.w3.org/2000/svg">
<g id="Group">
<g id="Group_2">
<path id="Vector" d="M15.2368 18.8813H2.60526V6.01811H9.97368V3.91284H2.60526C1.44737 3.91284 0.5 4.86021 0.5 6.01811V18.6497C0.5 19.8076 1.44737 20.7549 2.60526 20.7549H15.2368C16.3947 20.7549 17.3421 19.8076 17.3421 18.6497V11.2813H15.2368V18.8813Z" fill="#696969"/>
<path id="Vector_2" d="M17.342 0.754883H15.2368V3.91278H12.0789C12.0894 3.9233 12.0789 6.01804 12.0789 6.01804H15.2368V9.16541C15.2473 9.17594 17.342 9.16541 17.342 9.16541V6.01804H20.4999V3.91278H17.342V0.754883Z" fill="#696969"/>
<path id="Vector_3" d="M13.1315 8.12329H4.71045V10.2286H13.1315V8.12329Z" fill="#696969"/>
<path id="Vector_4" d="M4.71045 11.2812V13.3865H13.1315V11.2812H9.97361H4.71045Z" fill="#696969"/>
<path id="Vector_5" d="M13.1315 14.439H4.71045V16.5442H13.1315V14.439Z" fill="#696969"/>
</g>
</g>
</svg>
