<svg width="23" height="23" viewBox="0 0 23 23" fill="none" xmlns="http://www.w3.org/2000/svg">
<path id="Vector" d="M12.3257 0.029531C5.32067 -0.465076 -0.465076 5.32067 0.029531 12.3257C0.443621 18.4105 5.75777 23 11.8541 23H16.0985C16.7311 23 17.2488 22.4824 17.2488 21.8498C17.2488 21.2171 16.7311 20.6995 16.0985 20.6995H11.8771C7.58666 20.6995 3.65281 17.9159 2.58308 13.7635C0.869213 7.09206 7.08056 0.869213 13.752 2.59459C17.9159 3.65282 20.6995 7.58666 20.6995 11.8771V13.1424C20.6995 14.0511 19.8828 14.9483 18.9741 14.9483C18.0654 14.9483 17.2488 14.0511 17.2488 13.1424V11.7046C17.2488 8.81743 15.2013 6.21787 12.3487 5.81528C8.43785 5.25166 5.13664 8.63339 5.83829 12.5672C6.22937 14.7642 7.94324 16.5816 10.1172 17.0992C12.2337 17.5938 14.2466 16.9152 15.5694 15.5694C16.5931 16.9727 18.6406 17.7089 20.5155 16.9612C22.0568 16.3516 23 14.7757 23 13.1194V11.8656C23 5.75777 18.4105 0.443621 12.3257 0.029531ZM11.4975 14.9483C9.5881 14.9483 8.04677 13.4069 8.04677 11.4975C8.04677 9.5881 9.5881 8.04677 11.4975 8.04677C13.4069 8.04677 14.9483 9.5881 14.9483 11.4975C14.9483 13.4069 13.4069 14.9483 11.4975 14.9483Z" fill="#343131"/>
</svg>
