<svg width="96" height="96" viewBox="0 0 96 96" fill="none" xmlns="http://www.w3.org/2000/svg">
<g id="Sentiment very satisfied" clip-path="url(#clip0_851_3289)">
<path id="Vector" d="M35.52 39.76L37.64 41.88C38.8 43.04 40.72 43.04 41.88 41.88C43.04 40.72 43.04 38.8 41.88 37.64L38.36 34.12C36.8 32.56 34.28 32.56 32.72 34.12L29.16 37.64C28 38.8 28 40.72 29.16 41.88C30.32 43.04 32.24 43.04 33.4 41.88L35.52 39.76ZM48 70C56.12 70 63.2 65.56 67 59C67.76 57.68 66.8 56 65.24 56H30.76C29.24 56 28.24 57.68 29 59C32.8 65.56 39.88 70 48 70ZM54.12 41.88C55.28 43.04 57.2 43.04 58.36 41.88L60.48 39.76L62.6 41.88C63.76 43.04 65.68 43.04 66.84 41.88C68 40.72 68 38.8 66.84 37.64L63.32 34.12C61.76 32.56 59.24 32.56 57.68 34.12L54.16 37.64C52.96 38.8 52.96 40.72 54.12 41.88ZM47.96 8C25.88 8 8 25.88 8 48C8 70.12 25.88 88 47.96 88C70.04 88 88 70.12 88 48C88 25.88 70.08 8 47.96 8ZM48 80C30.32 80 16 65.68 16 48C16 30.32 30.32 16 48 16C65.68 16 80 30.32 80 48C80 65.68 65.68 80 48 80Z" fill="#B8B8B8"/>
</g>
<defs>
<clipPath id="clip0_851_3289">
<rect width="96" height="96" fill="white"/>
</clipPath>
</defs>
</svg>
