<svg width="27" height="28" viewBox="0 0 27 28" fill="none" xmlns="http://www.w3.org/2000/svg">
<g id="fi-rr-home" clip-path="url(#clip0_1009_446)">
<path id="Vector" d="M26.0114 10.7364L17.4783 2.20219C16.4222 1.14918 14.9916 0.557861 13.5003 0.557861C12.0089 0.557861 10.5784 1.14918 9.52226 2.20219L0.989133 10.7364C0.674611 11.0489 0.425249 11.4208 0.255501 11.8304C0.0857523 12.24 -0.00100506 12.6792 0.00025773 13.1226V24.1667C0.00025773 25.0618 0.355837 25.9202 0.988772 26.5532C1.62171 27.1861 2.48015 27.5417 3.37526 27.5417H23.6253C24.5204 27.5417 25.3788 27.1861 26.0117 26.5532C26.6447 25.9202 27.0003 25.0618 27.0003 24.1667V13.1226C27.0015 12.6792 26.9148 12.24 26.745 11.8304C26.5753 11.4208 26.3259 11.0489 26.0114 10.7364ZM16.8753 25.2917H10.1253V20.8659C10.1253 19.9708 10.4808 19.1124 11.1138 18.4795C11.7467 17.8465 12.6052 17.4909 13.5003 17.4909C14.3954 17.4909 15.2538 17.8465 15.8867 18.4795C16.5197 19.1124 16.8753 19.9708 16.8753 20.8659V25.2917ZM24.7503 24.1667C24.7503 24.4651 24.6317 24.7512 24.4208 24.9622C24.2098 25.1732 23.9236 25.2917 23.6253 25.2917H19.1253V20.8659C19.1253 19.3741 18.5326 17.9434 17.4777 16.8885C16.4228 15.8336 14.9921 15.2409 13.5003 15.2409C12.0084 15.2409 10.5777 15.8336 9.52278 16.8885C8.46789 17.9434 7.87526 19.3741 7.87526 20.8659V25.2917H3.37526C3.07689 25.2917 2.79074 25.1732 2.57976 24.9622C2.36878 24.7512 2.25026 24.4651 2.25026 24.1667V13.1226C2.2513 12.8244 2.36972 12.5387 2.57988 12.3272L11.113 3.79632C11.7472 3.16511 12.6055 2.81075 13.5003 2.81075C14.395 2.81075 15.2533 3.16511 15.8875 3.79632L24.4206 12.3306C24.63 12.5412 24.7483 12.8256 24.7503 13.1226V24.1667Z" fill="#BD1E08"/>
</g>
<defs>
<clipPath id="clip0_1009_446">
<rect width="27" height="27" fill="white" transform="translate(0 0.533936)"/>
</clipPath>
</defs>
</svg>
