<svg width="72" height="72" viewBox="0 0 72 72" fill="none" xmlns="http://www.w3.org/2000/svg">
<path id="Vector" d="M71.4999 27.3799C71.5067 25.7513 71.0651 24.1522 70.2237 22.7578C69.3822 21.3634 68.1733 20.2274 66.7293 19.4742C65.2853 18.721 63.6619 18.3797 62.0369 18.4877C60.4118 18.5956 58.8478 19.1486 57.5161 20.0861C56.1844 21.0237 55.1363 22.3096 54.4867 23.803C53.837 25.2965 53.6108 26.9399 53.8329 28.5533C54.055 30.1667 54.7167 31.6879 55.7457 32.9503C56.7746 34.2127 58.1311 35.1677 59.6666 35.7105V48.0882C59.6666 52.7958 57.7965 57.3106 54.4678 60.6394C51.139 63.9681 46.6242 65.8382 41.9166 65.8382C37.209 65.8382 32.6943 63.9681 29.3655 60.6394C26.0367 57.3106 24.1666 52.7958 24.1666 48.0882V47.8515C29.0895 47.1373 33.5913 44.6763 36.8501 40.9178C40.1088 37.1594 41.9071 32.3543 41.9166 27.3799V15.5465C41.9119 11.625 40.352 7.86541 37.5791 5.09245C34.8061 2.31949 31.0465 0.75958 27.125 0.754883C26.3404 0.754883 25.5879 1.06656 25.0331 1.62136C24.4783 2.17615 24.1666 2.92862 24.1666 3.71322C24.1666 4.49781 24.4783 5.25028 25.0331 5.80507C25.5879 6.35987 26.3404 6.67155 27.125 6.67155C29.4788 6.67155 31.7362 7.60659 33.4005 9.27098C35.0649 10.9354 36 13.1928 36 15.5465V27.3799C36 31.3029 34.4416 35.0652 31.6676 37.8392C28.8936 40.6131 25.1313 42.1715 21.2083 42.1715C17.2853 42.1715 13.523 40.6131 10.749 37.8392C7.97506 35.0652 6.41666 31.3029 6.41666 27.3799V15.5465C6.41666 13.1928 7.3517 10.9354 9.01609 9.27098C10.6805 7.60659 12.9379 6.67155 15.2917 6.67155C16.0763 6.67155 16.8287 6.35987 17.3835 5.80507C17.9383 5.25028 18.25 4.49781 18.25 3.71322C18.25 2.92862 17.9383 2.17615 17.3835 1.62136C16.8287 1.06656 16.0763 0.754883 15.2917 0.754883C11.3701 0.75958 7.61052 2.31949 4.83756 5.09245C2.06461 7.86541 0.504697 11.625 0.5 15.5465L0.5 27.3799C0.509514 32.3543 2.30781 37.1594 5.56655 40.9178C8.82529 44.6763 13.3271 47.1373 18.25 47.8515V48.0882C18.25 54.365 20.7434 60.3847 25.1818 64.8231C29.6201 69.2614 35.6398 71.7549 41.9166 71.7549C48.1934 71.7549 54.2131 69.2614 58.6515 64.8231C63.0898 60.3847 65.5833 54.365 65.5833 48.0882V35.7105C67.3077 35.1009 68.8017 33.9733 69.8608 32.4821C70.9198 30.9909 71.4923 29.2089 71.4999 27.3799ZM62.6249 30.3382C62.0398 30.3382 61.4679 30.1647 60.9814 29.8396C60.4949 29.5146 60.1157 29.0526 59.8918 28.512C59.6679 27.9714 59.6093 27.3766 59.7234 26.8027C59.8376 26.2289 60.1194 25.7018 60.5331 25.288C60.9468 24.8743 61.4739 24.5925 62.0478 24.4784C62.6217 24.3642 63.2165 24.4228 63.757 24.6467C64.2976 24.8706 64.7596 25.2498 65.0847 25.7363C65.4098 26.2228 65.5833 26.7948 65.5833 27.3799C65.5833 28.1645 65.2716 28.9169 64.7168 29.4717C64.162 30.0265 63.4095 30.3382 62.6249 30.3382Z" fill="#FBF8F8"/>
</svg>
