<svg width="72" height="72" viewBox="0 0 72 72" fill="none" xmlns="http://www.w3.org/2000/svg">
<path id="Vector" d="M56.7083 12.5882H44.875V9.62988C44.875 7.27609 43.94 5.0187 42.2756 3.35431C40.6112 1.68992 38.3538 0.754883 36 0.754883C33.6462 0.754883 31.3888 1.68992 29.7244 3.35431C28.06 5.0187 27.125 7.27609 27.125 9.62988V12.5882H15.2917C11.3701 12.5929 7.61053 14.1528 4.83757 16.9258C2.06461 19.6987 0.504697 23.4583 0.5 27.3799L0.5 56.9632C0.504697 60.8848 2.06461 64.6444 4.83757 67.4173C7.61053 70.1903 11.3701 71.7502 15.2917 71.7549H56.7083C60.6299 71.7502 64.3895 70.1903 67.1624 67.4173C69.9354 64.6444 71.4953 60.8848 71.5 56.9632V27.3799C71.4953 23.4583 69.9354 19.6987 67.1624 16.9258C64.3895 14.1528 60.6299 12.5929 56.7083 12.5882ZM33.0417 9.62988C33.0417 8.84528 33.3533 8.09282 33.9081 7.53802C34.4629 6.98323 35.2154 6.67155 36 6.67155C36.7846 6.67155 37.5371 6.98323 38.0919 7.53802C38.6466 8.09282 38.9583 8.84528 38.9583 9.62988V15.5465C38.9583 16.3311 38.6466 17.0836 38.0919 17.6384C37.5371 18.1932 36.7846 18.5049 36 18.5049C35.2154 18.5049 34.4629 18.1932 33.9081 17.6384C33.3533 17.0836 33.0417 16.3311 33.0417 15.5465V9.62988ZM65.5833 56.9632C65.5833 59.317 64.6483 61.5744 62.9839 63.2388C61.3195 64.9032 59.0621 65.8382 56.7083 65.8382H15.2917C12.9379 65.8382 10.6805 64.9032 9.01609 63.2388C7.35171 61.5744 6.41667 59.317 6.41667 56.9632V27.3799C6.41667 25.0261 7.35171 22.7687 9.01609 21.1043C10.6805 19.4399 12.9379 18.5049 15.2917 18.5049H27.6693C28.2718 20.2342 29.3975 21.7331 30.8902 22.7938C32.3829 23.8545 34.1688 24.4243 36 24.4243C37.8312 24.4243 39.617 23.8545 41.1098 22.7938C42.6025 21.7331 43.7282 20.2342 44.3307 18.5049H56.7083C59.0621 18.5049 61.3195 19.4399 62.9839 21.1043C64.6483 22.7687 65.5833 25.0261 65.5833 27.3799V56.9632ZM30.0833 30.3382H15.2917C14.5071 30.3382 13.7546 30.6499 13.1998 31.2047C12.645 31.7595 12.3333 32.5119 12.3333 33.2965V56.9632C12.3333 57.7478 12.645 58.5003 13.1998 59.0551C13.7546 59.6099 14.5071 59.9215 15.2917 59.9215H30.0833C30.8679 59.9215 31.6204 59.6099 32.1752 59.0551C32.73 58.5003 33.0417 57.7478 33.0417 56.9632V33.2965C33.0417 32.5119 32.73 31.7595 32.1752 31.2047C31.6204 30.6499 30.8679 30.3382 30.0833 30.3382ZM27.125 54.0049H18.25V36.2549H27.125V54.0049ZM59.6667 45.1299C59.6667 45.9145 59.355 46.6669 58.8002 47.2217C58.2454 47.7765 57.4929 48.0882 56.7083 48.0882H41.9167C41.1321 48.0882 40.3796 47.7765 39.8248 47.2217C39.27 46.6669 38.9583 45.9145 38.9583 45.1299C38.9583 44.3453 39.27 43.5928 39.8248 43.038C40.3796 42.4832 41.1321 42.1715 41.9167 42.1715H56.7083C57.4929 42.1715 58.2454 42.4832 58.8002 43.038C59.355 43.5928 59.6667 44.3453 59.6667 45.1299ZM59.6667 33.2965C59.6667 34.0811 59.355 34.8336 58.8002 35.3884C58.2454 35.9432 57.4929 36.2549 56.7083 36.2549H41.9167C41.1321 36.2549 40.3796 35.9432 39.8248 35.3884C39.27 34.8336 38.9583 34.0811 38.9583 33.2965C38.9583 32.5119 39.27 31.7595 39.8248 31.2047C40.3796 30.6499 41.1321 30.3382 41.9167 30.3382H56.7083C57.4929 30.3382 58.2454 30.6499 58.8002 31.2047C59.355 31.7595 59.6667 32.5119 59.6667 33.2965ZM53.75 56.9632C53.75 57.7478 53.4383 58.5003 52.8835 59.0551C52.3287 59.6099 51.5763 59.9215 50.7917 59.9215H41.9167C41.1321 59.9215 40.3796 59.6099 39.8248 59.0551C39.27 58.5003 38.9583 57.7478 38.9583 56.9632C38.9583 56.1786 39.27 55.4261 39.8248 54.8714C40.3796 54.3166 41.1321 54.0049 41.9167 54.0049H50.7917C51.5763 54.0049 52.3287 54.3166 52.8835 54.8714C53.4383 55.4261 53.75 56.1786 53.75 56.9632Z" fill="#FBF8F8"/>
</svg>
