<svg width="27" height="28" viewBox="0 0 27 28" fill="none" xmlns="http://www.w3.org/2000/svg">
<g id="fi-rr-portrait" clip-path="url(#clip0_1009_2086)">
<path id="Vector" d="M21.375 0.533936H5.625C4.13371 0.535722 2.704 1.12893 1.6495 2.18343C0.594992 3.23794 0.00178634 4.66764 0 6.15894L0 21.9089C0.00178634 23.4002 0.594992 24.8299 1.6495 25.8844C2.704 26.9389 4.13371 27.5321 5.625 27.5339H21.375C22.8663 27.5321 24.296 26.9389 25.3505 25.8844C26.405 24.8299 26.9982 23.4002 27 21.9089V6.15894C26.9982 4.66764 26.405 3.23794 25.3505 2.18343C24.296 1.12893 22.8663 0.535722 21.375 0.533936V0.533936ZM7.875 25.2839V24.1589C7.875 22.6671 8.46763 21.2364 9.52252 20.1815C10.5774 19.1266 12.0082 18.5339 13.5 18.5339C14.9918 18.5339 16.4226 19.1266 17.4775 20.1815C18.5324 21.2364 19.125 22.6671 19.125 24.1589V25.2839H7.875ZM24.75 21.9089C24.75 22.804 24.3944 23.6625 23.7615 24.2954C23.1286 24.9284 22.2701 25.2839 21.375 25.2839V24.1589C21.375 22.0704 20.5453 20.0673 19.0685 18.5905C17.5916 17.1136 15.5886 16.2839 13.5 16.2839C11.4114 16.2839 9.40838 17.1136 7.93153 18.5905C6.45469 20.0673 5.625 22.0704 5.625 24.1589V25.2839C4.72989 25.2839 3.87145 24.9284 3.23851 24.2954C2.60558 23.6625 2.25 22.804 2.25 21.9089V6.15894C2.25 5.26383 2.60558 4.40539 3.23851 3.77245C3.87145 3.13951 4.72989 2.78394 5.625 2.78394H21.375C22.2701 2.78394 23.1286 3.13951 23.7615 3.77245C24.3944 4.40539 24.75 5.26383 24.75 6.15894V21.9089Z" fill="black"/>
<path id="Vector_2" d="M13.5001 5.03418C12.6101 5.03418 11.7401 5.2981 11 5.79257C10.26 6.28703 9.68325 6.98984 9.34265 7.8121C9.00206 8.63437 8.91294 9.53917 9.08658 10.4121C9.26021 11.285 9.68879 12.0868 10.3181 12.7162C10.9475 13.3455 11.7493 13.7741 12.6222 13.9477C13.4951 14.1213 14.3999 14.0322 15.2222 13.6916C16.0445 13.351 16.7473 12.7743 17.2417 12.0342C17.7362 11.2942 18.0001 10.4242 18.0001 9.53418C18.0001 8.34071 17.526 7.19611 16.6821 6.3522C15.8382 5.50829 14.6936 5.03418 13.5001 5.03418ZM13.5001 11.7842C13.0551 11.7842 12.6201 11.6522 12.2501 11.405C11.8801 11.1578 11.5917 10.8064 11.4214 10.3952C11.2511 9.98408 11.2065 9.53168 11.2933 9.09523C11.3802 8.65877 11.5945 8.25786 11.9091 7.94319C12.2238 7.62852 12.6247 7.41423 13.0612 7.32741C13.4976 7.2406 13.95 7.28515 14.3611 7.45545C14.7723 7.62575 15.1237 7.91414 15.3709 8.28415C15.6181 8.65416 15.7501 9.08917 15.7501 9.53418C15.7501 10.1309 15.5131 10.7032 15.0911 11.1252C14.6691 11.5471 14.0968 11.7842 13.5001 11.7842Z" fill="black"/>
</g>
<defs>
<clipPath id="clip0_1009_2086">
<rect width="27" height="27" fill="white" transform="translate(0 0.533936)"/>
</clipPath>
</defs>
</svg>
