<svg width="59" height="57" viewBox="0 0 59 57" fill="none" xmlns="http://www.w3.org/2000/svg">
<path id="Vector" d="M29.5 0C13.492 0 0.5 12.768 0.5 28.5C0.5 44.232 13.492 57 29.5 57C45.508 57 58.5 44.232 58.5 28.5C58.5 12.768 45.508 0 29.5 0ZM41.1 31.35H32.4V39.9C32.4 41.4675 31.095 42.75 29.5 42.75C27.905 42.75 26.6 41.4675 26.6 39.9V31.35H17.9C16.305 31.35 15 30.0675 15 28.5C15 26.9325 16.305 25.65 17.9 25.65H26.6V17.1C26.6 15.5325 27.905 14.25 29.5 14.25C31.095 14.25 32.4 15.5325 32.4 17.1V25.65H41.1C42.695 25.65 44 26.9325 44 28.5C44 30.0675 42.695 31.35 41.1 31.35Z" fill="#E10E17"/>
</svg>
