<svg width="21" height="21" viewBox="0 0 21 21" fill="none" xmlns="http://www.w3.org/2000/svg">
<path id="Vector" d="M17.3421 6.01804V9.16541C17.3421 9.16541 15.2474 9.17594 15.2368 9.16541V6.01804H12.0789C12.0789 6.01804 12.0895 3.9233 12.0789 3.91278H15.2368V0.754883H17.3421V3.91278H20.5V6.01804H17.3421ZM14.1842 10.2286V7.07067H11.0263V3.91278H2.60526C1.44737 3.91278 0.5 4.86015 0.5 6.01804V18.6496C0.5 19.8075 1.44737 20.7549 2.60526 20.7549H15.2368C16.3947 20.7549 17.3421 19.8075 17.3421 18.6496V10.2286H14.1842ZM2.60526 18.6496L5.76316 14.4391L7.86842 17.597L11.0263 13.3865L15.2368 18.6496H2.60526Z" fill="#696969"/>
</svg>
