<svg xmlns="http://www.w3.org/2000/svg" width="64" height="83" viewBox="0 0 64 83" fill="none">
  <path fill-rule="evenodd" clip-rule="evenodd" d="M23.6007 14.7811C22.9468 16.0867 22.3862 18.1867 22.6032 21.5227C22.7944 24.4618 24.8088 29.2185 28.6078 35.3495C29.3793 36.5946 30.2033 37.8638 31.0693 39.149C31.8901 37.8345 32.6693 36.5372 33.397 35.266C36.9801 29.0064 38.8275 24.1824 38.9161 21.2384C39.0167 17.8988 38.3821 15.8213 37.6819 14.5404C36.9962 13.286 36.1002 12.5225 35.1766 12.0131C33.1633 10.9027 30.9314 10.9439 30.5778 10.9504L30.5622 10.9507L30.5467 10.951C30.1938 10.9567 27.9721 10.9932 26.008 12.1702C25.1074 12.7099 24.241 13.5029 23.6007 14.7811ZM37.8287 48.4876C39.6704 45.7153 41.4062 42.9456 42.9491 40.2501C46.5752 33.9154 49.6318 27.1697 49.8018 21.5214C49.9443 16.7895 49.0666 12.8754 47.336 9.70956C45.591 6.51731 43.1379 4.37897 40.6309 2.99636C38.1735 1.64105 35.7268 1.04184 33.8948 0.771085C32.9668 0.633933 32.1614 0.575898 31.5421 0.552958C31.2312 0.541441 30.9666 0.538754 30.7571 0.539448C30.5595 0.540103 30.3809 0.544422 30.3809 0.544422C30.3809 0.544422 30.2023 0.546329 30.0048 0.552561C29.7956 0.559166 29.5314 0.571077 29.2213 0.593437C28.6037 0.637972 27.8017 0.7241 26.88 0.893658C25.0603 1.22841 22.6389 1.91318 20.2334 3.35458C17.7794 4.82511 15.4076 7.04865 13.7795 10.299C12.165 13.5221 11.4268 17.4626 11.734 22.1848C12.1008 27.8238 15.3905 34.4588 19.2352 40.6634C20.8711 43.3035 22.7023 46.011 24.6395 48.7174C23.3303 50.5553 21.989 52.3873 20.6414 54.1916C16.4384 59.8188 12.2483 65.078 8.86455 69.3252C8.47972 69.8082 8.10531 70.2781 7.7425 70.734C5.98585 72.9414 4.46162 74.869 3.37556 76.3266C2.83941 77.0461 2.34146 77.7421 1.95963 78.346C1.77329 78.6407 1.54872 79.0163 1.35435 79.4232L1.3432 79.4463C1.23277 79.6746 -0.268166 81.643 0.758297 82.004C1.78476 82.365 12.9347 82.5737 13.4774 81.859C14.0201 81.1443 14.7097 79.1588 16.4067 77.0264C16.7669 76.5738 17.1403 76.1051 17.5257 75.6214C20.9027 71.3829 25.1946 65.9962 29.5016 60.2298C30.1308 59.3874 30.762 58.5347 31.3922 57.6742C32.052 58.5122 32.7125 59.3424 33.3707 60.1624C37.8761 65.7753 42.3532 71.0093 45.8759 75.1276C46.2778 75.5974 46.6672 76.0528 47.0429 76.4925C48.8979 78.6636 49.5761 80.4501 50.0003 81.1458C50.4246 81.8415 62.3159 81.5598 62.8553 80.9218C63.3947 80.2838 62.2999 78.6103 62.1816 78.386L62.1697 78.3633C61.9612 77.9634 61.7237 77.5959 61.5272 77.3079C61.1246 76.7176 60.6027 76.0394 60.0418 75.339C58.9056 73.9202 57.3151 72.0469 55.4826 69.902C55.1041 69.459 54.7135 69.0024 54.3121 68.533C50.7824 64.4063 46.4116 59.2964 42.0151 53.8191C40.6054 52.0629 39.2011 50.2787 37.8287 48.4876Z" fill="#E10E17"/>
</svg>