<svg width="21" height="21" viewBox="0 0 21 21" fill="none" xmlns="http://www.w3.org/2000/svg">
<path id="Union" fill-rule="evenodd" clip-rule="evenodd" d="M18.0033 10.301C18.0033 14.7199 14.4211 18.3021 10.0022 18.3021C9.09402 18.3021 8.22515 18.1516 7.41668 17.8757C6.64317 17.6118 5.71887 17.5256 4.79175 17.8129L4.31581 17.9603C4.4475 16.8267 4.07607 15.7656 3.5018 14.9673C2.55706 13.6542 2.00111 12.0455 2.00111 10.301C2.00111 5.88215 5.58332 2.29994 10.0022 2.29994C14.4211 2.29994 18.0033 5.88215 18.0033 10.301ZM2.29184 17.9408L2.13401 18.6362L1.87831 19.7629C1.76466 20.2637 2.23571 20.6997 2.72619 20.5477L3.82979 20.2058L5.38393 19.7243C5.83663 19.5841 6.32191 19.6166 6.77045 19.7696C7.78423 20.1156 8.8713 20.3032 10.0022 20.3032C15.5263 20.3032 20.0044 15.8251 20.0044 10.301C20.0044 4.77697 15.5263 0.298828 10.0022 0.298828C4.47814 0.298828 0 4.77697 0 10.301C0 12.4786 0.695877 14.4937 1.87739 16.136C2.25422 16.6598 2.43465 17.3116 2.29184 17.9408ZM10.0027 11.7921C10.6645 11.7921 11.2009 11.2556 11.2009 10.5938C11.2009 9.93202 10.6645 9.39554 10.0027 9.39554C9.34089 9.39554 8.80441 9.93202 8.80441 10.5938C8.80441 11.2556 9.34089 11.7921 10.0027 11.7921ZM5.60458 11.7925C6.26636 11.7925 6.80284 11.256 6.80284 10.5942C6.80284 9.93242 6.26636 9.39594 5.60458 9.39594C4.9428 9.39594 4.40632 9.93242 4.40632 10.5942C4.40632 11.256 4.9428 11.7925 5.60458 11.7925ZM15.598 10.5938C15.598 11.2556 15.0615 11.7921 14.3997 11.7921C13.7379 11.7921 13.2015 11.2556 13.2015 10.5938C13.2015 9.93202 13.7379 9.39554 14.3997 9.39554C15.0615 9.39554 15.598 9.93202 15.598 10.5938Z" fill="#0A0A0A"/>
</svg>
