<svg width="27" height="28" viewBox="0 0 27 28" fill="none" xmlns="http://www.w3.org/2000/svg">
<g id="fi-rr-comment-alt" clip-path="url(#clip0_1009_2078)">
<path id="Vector" d="M22.5 0.533936H4.5C3.30653 0.533936 2.16193 1.00804 1.31802 1.85196C0.474106 2.69587 0 3.84046 0 5.03394L0 18.5339C0 19.7274 0.474106 20.872 1.31802 21.7159C2.16193 22.5598 3.30653 23.0339 4.5 23.0339H7.7625L12.7699 27.2673C12.973 27.4392 13.2305 27.5336 13.4966 27.5336C13.7627 27.5336 14.0202 27.4392 14.2234 27.2673L19.2375 23.0339H22.5C23.6935 23.0339 24.8381 22.5598 25.682 21.7159C26.5259 20.872 27 19.7274 27 18.5339V5.03394C27 3.84046 26.5259 2.69587 25.682 1.85196C24.8381 1.00804 23.6935 0.533936 22.5 0.533936V0.533936ZM24.75 18.5339C24.75 19.1307 24.5129 19.703 24.091 20.1249C23.669 20.5469 23.0967 20.7839 22.5 20.7839H19.2375C18.7057 20.7841 18.1912 20.9726 17.7851 21.3161L13.5 24.9352L9.21712 21.3161C8.81051 20.9721 8.29507 20.7836 7.7625 20.7839H4.5C3.90326 20.7839 3.33097 20.5469 2.90901 20.1249C2.48705 19.703 2.25 19.1307 2.25 18.5339V5.03394C2.25 4.4372 2.48705 3.8649 2.90901 3.44295C3.33097 3.02099 3.90326 2.78394 4.5 2.78394H22.5C23.0967 2.78394 23.669 3.02099 24.091 3.44295C24.5129 3.8649 24.75 4.4372 24.75 5.03394V18.5339Z" fill="black"/>
<path id="Vector_2" d="M7.875 8.40918H13.5C13.7984 8.40918 14.0845 8.29065 14.2955 8.07967C14.5065 7.86869 14.625 7.58255 14.625 7.28418C14.625 6.98581 14.5065 6.69966 14.2955 6.48868C14.0845 6.27771 13.7984 6.15918 13.5 6.15918H7.875C7.57663 6.15918 7.29048 6.27771 7.07951 6.48868C6.86853 6.69966 6.75 6.98581 6.75 7.28418C6.75 7.58255 6.86853 7.86869 7.07951 8.07967C7.29048 8.29065 7.57663 8.40918 7.875 8.40918Z" fill="black"/>
<path id="Vector_3" d="M19.125 10.6589H7.875C7.57663 10.6589 7.29048 10.7775 7.07951 10.9884C6.86853 11.1994 6.75 11.4856 6.75 11.7839C6.75 12.0823 6.86853 12.3684 7.07951 12.5794C7.29048 12.7904 7.57663 12.9089 7.875 12.9089H19.125C19.4234 12.9089 19.7095 12.7904 19.9205 12.5794C20.1315 12.3684 20.25 12.0823 20.25 11.7839C20.25 11.4856 20.1315 11.1994 19.9205 10.9884C19.7095 10.7775 19.4234 10.6589 19.125 10.6589Z" fill="black"/>
<path id="Vector_4" d="M19.125 15.1587H7.875C7.57663 15.1587 7.29048 15.2772 7.07951 15.4882C6.86853 15.6992 6.75 15.9853 6.75 16.2837C6.75 16.5821 6.86853 16.8682 7.07951 17.0792C7.29048 17.2902 7.57663 17.4087 7.875 17.4087H19.125C19.4234 17.4087 19.7095 17.2902 19.9205 17.0792C20.1315 16.8682 20.25 16.5821 20.25 16.2837C20.25 15.9853 20.1315 15.6992 19.9205 15.4882C19.7095 15.2772 19.4234 15.1587 19.125 15.1587Z" fill="black"/>
</g>
<defs>
<clipPath id="clip0_1009_2078">
<rect width="27" height="27" fill="white" transform="translate(0 0.533936)"/>
</clipPath>
</defs>
</svg>
