<svg width="33" height="33" viewBox="0 0 33 33" fill="none" xmlns="http://www.w3.org/2000/svg">
<path id="Vector" d="M10.8431 10.9706C10.2209 11.5928 10.2209 12.6111 10.8431 13.2333L14.2372 16.6274L10.8431 20.0216C10.2209 20.6438 10.2209 21.662 10.8431 22.2843C11.4654 22.9066 12.4836 22.9065 13.1059 22.2843L16.5 18.8902L19.8941 22.2843C20.5163 22.9065 21.5346 22.9065 22.1568 22.2843C22.7791 21.662 22.7791 20.6438 22.1568 20.0216L18.7627 16.6274L22.1568 13.2333C22.7791 12.6111 22.7791 11.5928 22.1568 10.9706C21.5346 10.3483 20.5163 10.3483 19.8941 10.9706L16.5 14.3647L13.1059 10.9706C12.4836 10.3483 11.4654 10.3483 10.8431 10.9706ZM5.18627 5.31373C-1.0589 11.5589 -1.0589 21.696 5.18627 27.9411C11.4314 34.1863 21.5685 34.1863 27.8137 27.9411C34.0589 21.696 34.0589 11.5589 27.8137 5.31373C21.5685 -0.931434 11.4314 -0.931434 5.18627 5.31373ZM25.5509 25.6784C20.5616 30.6678 12.4384 30.6678 7.44901 25.6784C2.45966 20.6891 2.45966 12.5658 7.44901 7.57647C12.4384 2.58713 20.5616 2.58713 25.5509 7.57647C30.5403 12.5658 30.5403 20.6891 25.5509 25.6784Z" fill="#CECCCC"/>
</svg>
