<svg width="65" height="76" viewBox="0 0 65 76" fill="none" xmlns="http://www.w3.org/2000/svg">
<path id="Vector" d="M57.2917 0.8125H7.70833C3.77708 0.8125 0.625 4 0.625 7.89583V57.4792C0.625 61.375 3.77708 64.5625 7.70833 64.5625H21.875L32.5 75.1875L43.125 64.5625H57.2917C61.1875 64.5625 64.375 61.375 64.375 57.4792V7.89583C64.375 4 61.1875 0.8125 57.2917 0.8125ZM57.2917 57.4792H40.1854L38.0958 59.5688L32.5 65.1646L26.8687 59.5333L24.8146 57.4792H7.70833V7.89583H57.2917V57.4792ZM32.5 32.6875C38.3438 32.6875 43.125 27.9062 43.125 22.0625C43.125 16.2188 38.3438 11.4375 32.5 11.4375C26.6562 11.4375 21.875 16.2188 21.875 22.0625C21.875 27.9062 26.6562 32.6875 32.5 32.6875ZM32.5 18.5208C34.4479 18.5208 36.0417 20.1146 36.0417 22.0625C36.0417 24.0104 34.4479 25.6042 32.5 25.6042C30.5521 25.6042 28.9583 24.0104 28.9583 22.0625C28.9583 20.1146 30.5521 18.5208 32.5 18.5208ZM53.75 48.9083C53.75 40.0542 39.6896 36.2292 32.5 36.2292C25.3104 36.2292 11.25 40.0542 11.25 48.9083V53.9375H53.75V48.9083ZM20.0333 46.8542C22.6542 45.0479 27.9313 43.3125 32.5 43.3125C37.0688 43.3125 42.3458 45.0479 44.9667 46.8542H20.0333Z" fill="#FBF8F8"/>
</svg>
