<svg xmlns="http://www.w3.org/2000/svg" width="96" height="96" viewBox="0 0 96 96" fill="none">
<path d="M48 0.254883C21.78 0.254883 0.5 21.5349 0.5 47.7549C0.5 73.9749 21.78 95.2549 48 95.2549C74.22 95.2549 95.5 73.9749 95.5 47.7549C95.5 21.5349 74.22 0.254883 48 0.254883ZM48 14.5049C55.885 14.5049 62.25 20.8699 62.25 28.7549C62.25 36.6399 55.885 43.0049 48 43.0049C40.115 43.0049 33.75 36.6399 33.75 28.7549C33.75 20.8699 40.115 14.5049 48 14.5049ZM48 81.9549C36.125 81.9549 25.6275 75.8749 19.5 66.6599C19.6425 57.2074 38.5 52.0299 48 52.0299C57.4525 52.0299 76.3575 57.2074 76.5 66.6599C70.3725 75.8749 59.875 81.9549 48 81.9549Z" fill="#E76553"/>
</svg>