<svg xmlns="http://www.w3.org/2000/svg" width="65" height="72" viewBox="0 0 65 72" fill="none">
  <path d="M14.7917 50.1666H39.5833V57.2499H14.7917V50.1666ZM14.7917 35.9999H50.2083V43.0833H14.7917V35.9999ZM14.7917 21.8333H50.2083V28.9166H14.7917V21.8333ZM57.2917 7.66658H42.4875C41 3.55825 37.1042 0.583252 32.5 0.583252C27.8958 0.583252 24 3.55825 22.5125 7.66658H7.70833C7.2125 7.66658 6.75208 7.702 6.29167 7.80825C4.91042 8.09158 3.67083 8.79992 2.71458 9.75617C2.07708 10.3937 1.54583 11.1728 1.19167 12.0228C0.8375 12.8374 0.625 13.7583 0.625 14.7499V64.3332C0.625 65.2895 0.8375 66.2458 1.19167 67.0957C1.54583 67.9458 2.07708 68.6895 2.71458 69.3624C3.67083 70.3187 4.91042 71.027 6.29167 71.3103C6.75208 71.3812 7.2125 71.4166 7.70833 71.4166H57.2917C61.1875 71.4166 64.375 68.2291 64.375 64.3332V14.7499C64.375 10.8541 61.1875 7.66658 57.2917 7.66658ZM32.5 6.78117C33.9521 6.78117 35.1562 7.98533 35.1562 9.43742C35.1562 10.8895 33.9521 12.0937 32.5 12.0937C31.0479 12.0937 29.8438 10.8895 29.8438 9.43742C29.8438 7.98533 31.0479 6.78117 32.5 6.78117ZM57.2917 64.3332H7.70833V14.7499H57.2917V64.3332Z" fill="#FBF8F8"/>
</svg>