<svg width="25" height="26" viewBox="0 0 25 26" fill="none" xmlns="http://www.w3.org/2000/svg">
<g id="Iconly/Light/Home">
<g id="Home">
<path id="Home_2" d="M9.65722 22.7714V19.7047C9.6572 18.9246 10.2931 18.2908 11.081 18.2856H13.9671C14.7587 18.2856 15.4005 18.9209 15.4005 19.7047V22.7809C15.4003 23.4432 15.9343 23.9845 16.603 24H18.5271C20.4451 24 22 22.4607 22 20.5618V11.8378C21.9898 11.0908 21.6355 10.3893 21.038 9.93303L14.4577 4.6853C13.3049 3.77157 11.6662 3.77157 10.5134 4.6853L3.96203 9.94256C3.36226 10.397 3.00739 11.0997 3 11.8474V20.5618C3 22.4607 4.55488 24 6.47291 24H8.39696C9.08235 24 9.63797 23.4499 9.63797 22.7714" stroke="black" stroke-width="1.5" stroke-linecap="round" stroke-linejoin="round"/>
</g>
<circle id="Ellipse 31" cx="19.5" cy="5.5" r="5.5" fill="#EBD726"/>
</g>
</svg>
