<svg width="27" height="28" viewBox="0 0 27 28" fill="none" xmlns="http://www.w3.org/2000/svg">
<g id="fi-rr-home" clip-path="url(#clip0_2128_1595)">
<path id="Vector" d="M26.0114 10.7367L17.4782 2.20244C16.4221 1.14942 14.9916 0.558105 13.5002 0.558105C12.0089 0.558105 10.5783 1.14942 9.52223 2.20244L0.989102 10.7367C0.674581 11.0492 0.425218 11.421 0.25547 11.8306C0.0857218 12.2402 -0.00103558 12.6794 0.000227212 13.1228V24.1669C0.000227212 25.062 0.355807 25.9205 0.988742 26.5534C1.62168 27.1864 2.48012 27.5419 3.37523 27.5419H23.6252C24.5203 27.5419 25.3788 27.1864 26.0117 26.5534C26.6446 25.9205 27.0002 25.062 27.0002 24.1669V13.1228C27.0015 12.6794 26.9147 12.2402 26.745 11.8306C26.5752 11.421 26.3259 11.0492 26.0114 10.7367ZM16.8752 25.2919H10.1252V20.8662C10.1252 19.9711 10.4808 19.1126 11.1137 18.4797C11.7467 17.8468 12.6051 17.4912 13.5002 17.4912C14.3953 17.4912 15.2538 17.8468 15.8867 18.4797C16.5196 19.1126 16.8752 19.9711 16.8752 20.8662V25.2919ZM24.7502 24.1669C24.7502 24.4653 24.6317 24.7515 24.4207 24.9624C24.2097 25.1734 23.9236 25.2919 23.6252 25.2919H19.1252V20.8662C19.1252 19.3743 18.5326 17.9436 17.4777 16.8887C16.4228 15.8338 14.9921 15.2412 13.5002 15.2412C12.0084 15.2412 10.5776 15.8338 9.52275 16.8887C8.46786 17.9436 7.87523 19.3743 7.87523 20.8662V25.2919H3.37523C3.07686 25.2919 2.79071 25.1734 2.57973 24.9624C2.36875 24.7515 2.25023 24.4653 2.25023 24.1669V13.1228C2.25127 12.8247 2.36969 12.5389 2.57985 12.3274L11.113 3.79656C11.7471 3.16536 12.6055 2.811 13.5002 2.811C14.395 2.811 15.2533 3.16536 15.8875 3.79656L24.4206 12.3308C24.6299 12.5415 24.7483 12.8258 24.7502 13.1228V24.1669Z" fill="black"/>
</g>
<defs>
<clipPath id="clip0_2128_1595">
<rect width="27" height="27" fill="white" transform="translate(0 0.53418)"/>
</clipPath>
</defs>
</svg>
