<svg width="95" height="95" viewBox="0 0 95 95" fill="none" xmlns="http://www.w3.org/2000/svg">
<path id="Vector" d="M47.5 0C21.28 0 0 21.28 0 47.5C0 73.72 21.28 95 47.5 95C73.72 95 95 73.72 95 47.5C95 21.28 73.72 0 47.5 0ZM47.5 14.25C55.385 14.25 61.75 20.615 61.75 28.5C61.75 36.385 55.385 42.75 47.5 42.75C39.615 42.75 33.25 36.385 33.25 28.5C33.25 20.615 39.615 14.25 47.5 14.25ZM47.5 81.7C35.625 81.7 25.1275 75.62 19 66.405C19.1425 56.9525 38 51.775 47.5 51.775C56.9525 51.775 75.8575 56.9525 76 66.405C69.8725 75.62 59.375 81.7 47.5 81.7Z" fill="#E76553"/>
</svg>
