<svg width="24" height="24" viewBox="0 0 24 24" fill="none" xmlns="http://www.w3.org/2000/svg">
<path d="M11.7363 0.5C5.38833 0.5 0.236328 5.652 0.236328 12C0.236328 18.348 5.38833 23.5 11.7363 23.5C18.0843 23.5 23.2363 18.348 23.2363 12C23.2363 5.652 18.0843 0.5 11.7363 0.5ZM8.61983 16.9335L4.49133 12.805C4.04283 12.3565 4.04283 11.632 4.49133 11.1835C4.93983 10.735 5.66433 10.735 6.11283 11.1835L9.43633 14.4955L17.3483 6.5835C17.7968 6.135 18.5213 6.135 18.9698 6.5835C19.4183 7.032 19.4183 7.7565 18.9698 8.205L10.2413 16.9335C9.80433 17.382 9.06833 17.382 8.61983 16.9335Z" fill="#3DC726"/>
</svg>
