<svg width="33" height="34" viewBox="0 0 33 34" fill="none" xmlns="http://www.w3.org/2000/svg">
<path d="M8.36806 9.10484C3.87934 13.5936 3.87934 20.8796 8.36806 25.3683C12.8568 29.857 20.1428 29.857 24.6315 25.3683C29.1202 20.8796 29.1202 13.5936 24.6315 9.10484C20.1428 4.61613 12.8568 4.61613 8.36806 9.10484ZM20.5656 14.7971L18.1261 17.2366L20.5656 19.6761C21.0129 20.1233 21.0129 20.8552 20.5656 21.3024C20.1184 21.7497 19.3865 21.7497 18.9393 21.3024L16.4998 18.8629L14.0603 21.3024C13.613 21.7497 12.8812 21.7497 12.4339 21.3024C11.9867 20.8552 11.9867 20.1233 12.4339 19.6761L14.8734 17.2366L12.4339 14.7971C11.9867 14.3498 11.9867 13.618 12.4339 13.1707C12.8812 12.7235 13.613 12.7235 14.0603 13.1707L16.4998 15.6102L18.9393 13.1707C19.3865 12.7235 20.1184 12.7235 20.5656 13.1707C21.0129 13.618 21.0129 14.3498 20.5656 14.7971Z" fill="#E10E17"/>
</svg>
