<svg width="63" height="62" viewBox="0 0 63 62" fill="none" xmlns="http://www.w3.org/2000/svg">
<path id="Vector" d="M44.799 38.9864H42.0011L41.0094 38.0302C44.4802 33.9927 46.5698 28.751 46.5698 23.0489C46.5698 10.3343 36.2636 0.0280762 23.549 0.0280762C10.8344 0.0280762 0.528137 10.3343 0.528137 23.0489C0.528137 35.7635 10.8344 46.0697 23.549 46.0697C29.2511 46.0697 34.4927 43.9802 38.5302 40.5093L39.4865 41.501V44.2989L57.1948 61.9718L62.4719 56.6947L44.799 38.9864ZM23.549 38.9864C14.7302 38.9864 7.61147 31.8677 7.61147 23.0489C7.61147 14.2302 14.7302 7.11141 23.549 7.11141C32.3677 7.11141 39.4865 14.2302 39.4865 23.0489C39.4865 31.8677 32.3677 38.9864 23.549 38.9864Z" fill="#FBF8F8"/>
</svg>
