<svg width="71" height="72" viewBox="0 0 71 72" fill="none" xmlns="http://www.w3.org/2000/svg">
<g id="Group">
<path id="Vector" d="M63.8334 14.7499H49.6667V7.66659C49.6667 3.77075 46.4792 0.583252 42.5834 0.583252H28.4167C24.5209 0.583252 21.3334 3.77075 21.3334 7.66659V14.7499H7.16671C3.27087 14.7499 0.083374 17.9374 0.083374 21.8333V64.3333C0.083374 68.2291 3.27087 71.4166 7.16671 71.4166H63.8334C67.7292 71.4166 70.9167 68.2291 70.9167 64.3333V21.8333C70.9167 17.9374 67.7292 14.7499 63.8334 14.7499ZM28.4167 7.66659H42.5834V14.7499H28.4167V7.66659ZM63.8334 64.3333H7.16671V21.8333H63.8334V64.3333Z" fill="#FBF8F8"/>
<path id="Vector_2" d="M39.0417 28.9165H31.9584V39.5415H21.3334V46.6248H31.9584V57.2498H39.0417V46.6248H49.6667V39.5415H39.0417V28.9165Z" fill="#FBF8F8"/>
</g>
</svg>
