<svg width="81" height="64" viewBox="0 0 81 64" fill="none" xmlns="http://www.w3.org/2000/svg">
<path id="Vector" d="M72.5 8H40.5L32.5 0H8.5C4.1 0 0.54 3.6 0.54 8L0.5 56C0.5 60.4 4.1 64 8.5 64H72.5C76.9 64 80.5 60.4 80.5 56V16C80.5 11.6 76.9 8 72.5 8ZM72.5 56H8.5V8H29.18L37.18 16H72.5V56ZM52.5 36C56.9 36 60.5 32.4 60.5 28C60.5 23.6 56.9 20 52.5 20C48.1 20 44.5 23.6 44.5 28C44.5 32.4 48.1 36 52.5 36ZM36.5 52H68.5V48C68.5 42.68 57.82 40 52.5 40C47.18 40 36.5 42.68 36.5 48V52Z" fill="#FBF8F8"/>
</svg>
