<svg width="23" height="23" viewBox="0 0 23 23" fill="none" xmlns="http://www.w3.org/2000/svg">
<path id="Vector" d="M20.7465 15.6844L17.4944 15.3131C16.7133 15.2235 15.9451 15.4924 15.3946 16.0429L13.0387 18.3988C9.41531 16.5551 6.44489 13.5974 4.60118 9.96121L6.96983 7.59254C7.52039 7.04199 7.78926 6.27377 7.69964 5.49275L7.32833 2.26624C7.17469 0.973075 6.08639 0 4.78043 0H2.56541C1.11861 0 -0.0849215 1.20354 0.00470336 2.65035C0.683291 13.5846 9.42812 22.3167 20.3495 22.9953C21.7963 23.0849 22.9999 21.8814 22.9999 20.4346V18.2195C23.0127 16.9264 22.0396 15.8381 20.7465 15.6844Z" fill="#343131"/>
</svg>
