<svg width="24" height="25" viewBox="0 0 24 25" fill="none" xmlns="http://www.w3.org/2000/svg">
<g id="Iconly/Light/Profile">
<g id="Profile">
<circle id="Ellipse_736" cx="11.5791" cy="7.57686" r="4.77803" stroke="#0A0A0A" stroke-width="1.5" stroke-linecap="round" stroke-linejoin="round"/>
<path id="Path_33945" fill-rule="evenodd" clip-rule="evenodd" d="M4.00002 19.0004C3.99873 18.6645 4.07385 18.3327 4.2197 18.0301C4.67736 17.1148 5.96798 16.6297 7.03892 16.41C7.81128 16.2452 8.59431 16.1351 9.38217 16.0805C10.8408 15.9523 12.3079 15.9523 13.7666 16.0805C14.5544 16.1357 15.3374 16.2458 16.1099 16.41C17.1808 16.6297 18.4714 17.069 18.9291 18.0301C19.2224 18.6469 19.2224 19.363 18.9291 19.9798C18.4714 20.9409 17.1808 21.3802 16.1099 21.5908C15.3384 21.7624 14.5551 21.8756 13.7666 21.9294C12.5794 22.0301 11.3866 22.0484 10.1968 21.9844C9.92221 21.9844 9.65677 21.9844 9.38217 21.9294C8.59663 21.8763 7.81632 21.7631 7.04807 21.5908C5.96798 21.3802 4.68652 20.9409 4.2197 19.9798C4.0746 19.6737 3.99955 19.3391 4.00002 19.0004Z" stroke="#0A0A0A" stroke-width="1.5" stroke-linecap="round" stroke-linejoin="round"/>
</g>
</g>
</svg>
