<svg width="27" height="28" viewBox="0 0 27 28" fill="none" xmlns="http://www.w3.org/2000/svg">
<g id="fi-rr-portrait" clip-path="url(#clip0_2128_1608)">
<path id="Vector" d="M21.375 0.53418H5.625C4.13371 0.535966 2.704 1.12917 1.6495 2.18368C0.594992 3.23818 0.00178634 4.66789 0 6.15918L0 21.9092C0.00178634 23.4005 0.594992 24.8302 1.6495 25.8847C2.704 26.9392 4.13371 27.5324 5.625 27.5342H21.375C22.8663 27.5324 24.296 26.9392 25.3505 25.8847C26.405 24.8302 26.9982 23.4005 27 21.9092V6.15918C26.9982 4.66789 26.405 3.23818 25.3505 2.18368C24.296 1.12917 22.8663 0.535966 21.375 0.53418V0.53418ZM7.875 25.2842V24.1592C7.875 22.6673 8.46763 21.2366 9.52252 20.1817C10.5774 19.1268 12.0082 18.5342 13.5 18.5342C14.9918 18.5342 16.4226 19.1268 17.4775 20.1817C18.5324 21.2366 19.125 22.6673 19.125 24.1592V25.2842H7.875ZM24.75 21.9092C24.75 22.8043 24.3944 23.6627 23.7615 24.2957C23.1286 24.9286 22.2701 25.2842 21.375 25.2842V24.1592C21.375 22.0706 20.5453 20.0676 19.0685 18.5907C17.5916 17.1139 15.5886 16.2842 13.5 16.2842C11.4114 16.2842 9.40838 17.1139 7.93153 18.5907C6.45469 20.0676 5.625 22.0706 5.625 24.1592V25.2842C4.72989 25.2842 3.87145 24.9286 3.23851 24.2957C2.60558 23.6627 2.25 22.8043 2.25 21.9092V6.15918C2.25 5.26407 2.60558 4.40563 3.23851 3.77269C3.87145 3.13976 4.72989 2.78418 5.625 2.78418H21.375C22.2701 2.78418 23.1286 3.13976 23.7615 3.77269C24.3944 4.40563 24.75 5.26407 24.75 6.15918V21.9092Z" fill="#BD1E08"/>
<path id="Vector_2" d="M13.5001 5.03467C12.6101 5.03467 11.7401 5.29859 11 5.79305C10.26 6.28752 9.68325 6.99033 9.34265 7.81259C9.00206 8.63486 8.91294 9.53966 9.08658 10.4126C9.26021 11.2855 9.68879 12.0873 10.3181 12.7166C10.9475 13.346 11.7493 13.7746 12.6222 13.9482C13.4951 14.1218 14.3999 14.0327 15.2222 13.6921C16.0445 13.3515 16.7473 12.7748 17.2417 12.0347C17.7362 11.2947 18.0001 10.4247 18.0001 9.53467C18.0001 8.34119 17.526 7.1966 16.6821 6.35269C15.8382 5.50877 14.6936 5.03467 13.5001 5.03467ZM13.5001 11.7847C13.0551 11.7847 12.6201 11.6527 12.2501 11.4055C11.8801 11.1582 11.5917 10.8068 11.4214 10.3957C11.2511 9.98457 11.2065 9.53217 11.2933 9.09571C11.3802 8.65926 11.5945 8.25835 11.9091 7.94368C12.2238 7.62901 12.6247 7.41472 13.0612 7.3279C13.4976 7.24108 13.95 7.28564 14.3611 7.45594C14.7723 7.62624 15.1237 7.91462 15.3709 8.28464C15.6181 8.65465 15.7501 9.08966 15.7501 9.53467C15.7501 10.1314 15.5131 10.7037 15.0911 11.1257C14.6691 11.5476 14.0968 11.7847 13.5001 11.7847Z" fill="#BD1E08"/>
</g>
<defs>
<clipPath id="clip0_2128_1608">
<rect width="27" height="27" fill="white" transform="translate(0 0.53418)"/>
</clipPath>
</defs>
</svg>
