<svg width="22" height="22" viewBox="0 0 22 22" fill="none" xmlns="http://www.w3.org/2000/svg">
<path id="Vector" d="M18.1527 3.58765C16.0111 1.44866 12.9762 0.215137 9.63901 0.556325C4.81722 1.04186 0.849415 4.9524 0.31074 9.76839C-0.411873 16.1329 4.51503 21.5 10.7295 21.5C14.9207 21.5 18.5206 19.0461 20.2023 15.5161C20.6227 14.6369 19.9921 13.6264 19.0198 13.6264C18.5337 13.6264 18.0739 13.8889 17.8637 14.3219C16.379 17.5107 12.8185 19.5316 8.92954 18.6655C6.01281 18.0225 3.66104 15.6473 3.04353 12.7341C1.9399 7.64253 5.81574 3.12836 10.7295 3.12836C12.9105 3.12836 14.855 4.03381 16.2739 5.46418L14.29 7.44569C13.4623 8.27242 14.0404 9.68966 15.2097 9.68966H19.9264C20.649 9.68966 21.2402 9.09914 21.2402 8.3774V3.66638C21.2402 2.49847 19.8213 1.90795 18.9936 2.73468L18.1527 3.58765Z" fill="#696969"/>
</svg>
